# xmcd CD database file
# Copyright (C) 1997 Ti Kan
#
# Track frame offsets:
#  150
#  17407
#  34400
#  52522
#  72540
#
# Disc length: 1165 seconds
#
# Revision: 1
# Processed by: cddbd v1.4b41PL1 Copyright (c) Steve Scherf et al.
# Submitted via: CDWizzard Release:4.32
#
DISCID=37048b05
DTITLE=Various Artist - Hot New Country
DYEAR=1900
DGENRE=
TTITLE0=Now She Knows/Trisha Yearwood
TTITLE1=This Broken Heart/The Mavericks
TTITLE2=If I Had a Heart/Evangeline
TTITLE3=Live and Learn/Mac McAnally
TTITLE4=Sacred Ground/McBride and the Ride
EXTD=
EXTT0=
EXTT1=
EXTT2=
EXTT3=
EXTT4=
PLAYORDER=
